<svg width="52" height="22" viewBox="0 0 52 22" fill="none" xmlns="http://www.w3.org/2000/svg">
<rect width="52" height="22" rx="4" fill="#FF9F0D"/>
<path d="M20.8011 8.36364C20.7415 7.85985 20.4995 7.46875 20.0753 7.19034C19.651 6.91193 19.1307 6.77273 18.5142 6.77273C18.0634 6.77273 17.669 6.84564 17.331 6.99148C16.9962 7.13731 16.7344 7.33783 16.5455 7.59304C16.3598 7.84825 16.267 8.13826 16.267 8.46307C16.267 8.73485 16.3317 8.96851 16.4609 9.16406C16.5935 9.3563 16.7625 9.51705 16.968 9.64631C17.1735 9.77225 17.389 9.87666 17.6143 9.95952C17.8397 10.0391 18.0469 10.1037 18.2358 10.1534L19.2699 10.4318C19.535 10.5014 19.83 10.5975 20.1548 10.7202C20.483 10.8428 20.7962 11.0102 21.0945 11.2223C21.3961 11.4311 21.6446 11.6996 21.8402 12.0277C22.0357 12.3558 22.1335 12.7585 22.1335 13.2358C22.1335 13.786 21.9893 14.2831 21.701 14.7273C21.416 15.1714 20.9983 15.5244 20.4482 15.7862C19.9013 16.0481 19.2367 16.179 18.4545 16.179C17.7254 16.179 17.094 16.0613 16.5604 15.826C16.0301 15.5907 15.6125 15.2625 15.3075 14.8416C15.0059 14.4207 14.8352 13.9318 14.7955 13.375H16.0682C16.1013 13.7595 16.2306 14.0777 16.456 14.3295C16.6847 14.5781 16.973 14.7637 17.321 14.8864C17.6723 15.0057 18.0502 15.0653 18.4545 15.0653C18.9252 15.0653 19.3478 14.9891 19.7223 14.8366C20.0968 14.6809 20.3935 14.4654 20.6122 14.1903C20.831 13.9119 20.9403 13.5871 20.9403 13.2159C20.9403 12.8778 20.8459 12.6027 20.657 12.3906C20.468 12.1785 20.2195 12.0062 19.9112 11.8736C19.603 11.741 19.2699 11.625 18.9119 11.5256L17.6591 11.1676C16.8636 10.9389 16.2339 10.6125 15.7699 10.1882C15.3059 9.76397 15.0739 9.20881 15.0739 8.52273C15.0739 7.95265 15.228 7.45549 15.5362 7.03125C15.8478 6.60369 16.2654 6.27225 16.7891 6.03693C17.3161 5.7983 17.9044 5.67898 18.554 5.67898C19.2102 5.67898 19.7936 5.79664 20.304 6.03196C20.8144 6.26397 21.2188 6.58215 21.517 6.98651C21.8187 7.39086 21.9777 7.8499 21.9943 8.36364H20.8011ZM27.2033 16.1591C26.4675 16.1591 25.8328 15.9967 25.2992 15.6719C24.7689 15.3438 24.3596 14.8864 24.0712 14.2997C23.7862 13.7098 23.6436 13.0237 23.6436 12.2415C23.6436 11.4593 23.7862 10.7699 24.0712 10.1733C24.3596 9.57339 24.7606 9.10606 25.2743 8.77131C25.7914 8.43324 26.3946 8.2642 27.084 8.2642C27.4817 8.2642 27.8745 8.33049 28.2623 8.46307C28.65 8.59564 29.003 8.81108 29.3212 9.10938C29.6394 9.40436 29.8929 9.79545 30.0819 10.2827C30.2708 10.7699 30.3652 11.3698 30.3652 12.0824V12.5795H24.4789V11.5653H29.1721C29.1721 11.1345 29.0859 10.75 28.9135 10.4119C28.7445 10.0739 28.5025 9.80705 28.1877 9.61151C27.8761 9.41596 27.5082 9.31818 27.084 9.31818C26.6167 9.31818 26.2123 9.43419 25.8709 9.66619C25.5328 9.89489 25.2727 10.1932 25.0904 10.5611C24.9081 10.929 24.8169 11.3234 24.8169 11.7443V12.4205C24.8169 12.9972 24.9164 13.486 25.1152 13.8871C25.3174 14.2848 25.5975 14.5881 25.9554 14.7969C26.3134 15.0024 26.7293 15.1051 27.2033 15.1051C27.5115 15.1051 27.79 15.062 28.0385 14.9759C28.2904 14.8864 28.5075 14.7538 28.6898 14.5781C28.8721 14.3991 29.013 14.1771 29.1124 13.9119L30.2459 14.2301C30.1266 14.6146 29.9261 14.9527 29.6444 15.2443C29.3626 15.5327 29.0146 15.758 28.6003 15.9205C28.186 16.0795 27.7203 16.1591 27.2033 16.1591ZM33.3233 5.81818V16H32.15V5.81818H33.3233ZM36.6456 5.81818V16H35.4723V5.81818H36.6456Z" fill="white"/>
</svg>
