<svg width="63" height="9" viewBox="0 0 63 9" fill="none" xmlns="http://www.w3.org/2000/svg">
<path d="M9.5839 3.21503L6.55646 2.79251L5.19993 0.147892C5.17041 0.102625 5.12941 0.065307 5.08077 0.0394388C5.03213 0.0135706 4.97745 0 4.92186 0C4.86627 0 4.8116 0.0135706 4.76296 0.0394388C4.71432 0.065307 4.67332 0.102625 4.64379 0.147892L3.28727 2.79612L0.261084 3.21503C0.206262 3.2202 0.154116 3.2403 0.110772 3.27297C0.0674294 3.30564 0.0346913 3.34952 0.0164061 3.39946C-0.00187908 3.4494 -0.00495158 3.50331 0.00754977 3.55487C0.0200511 3.60642 0.0476068 3.65348 0.0869781 3.69051L2.28522 5.75492L1.76541 8.67039C1.75876 8.72413 1.76769 8.77859 1.79121 8.82777C1.81473 8.87694 1.85194 8.91891 1.89872 8.94905C1.94549 8.97919 2.00003 8.99632 2.0563 8.99855C2.11257 9.00078 2.16838 8.98802 2.21758 8.96169L4.92186 7.59424L7.62489 8.9629C7.67409 8.98923 7.72991 9.00198 7.78618 8.99975C7.84245 8.99752 7.89698 8.98039 7.94376 8.95025C7.99054 8.92012 8.02774 8.87815 8.05126 8.82897C8.07479 8.7798 8.08372 8.72533 8.07706 8.67159L7.5585 5.75492L9.75675 3.69051C9.79612 3.65348 9.82368 3.60642 9.83618 3.55487C9.84868 3.50331 9.84561 3.4494 9.82732 3.39946C9.80904 3.34952 9.7763 3.30564 9.73295 3.27297C9.68961 3.2403 9.63746 3.2202 9.58264 3.21503H9.5839Z" fill="#FF9F0D"/>
<path d="M23.3651 3.21503L20.3377 2.79251L18.9812 0.147892C18.9517 0.102625 18.9107 0.065307 18.862 0.0394388C18.8134 0.0135706 18.7587 0 18.7031 0C18.6475 0 18.5928 0.0135706 18.5442 0.0394388C18.4956 0.065307 18.4546 0.102625 18.425 0.147892L17.0685 2.79612L14.0423 3.21503C13.9875 3.2202 13.9354 3.2403 13.892 3.27297C13.8487 3.30564 13.8159 3.34952 13.7977 3.39946C13.7794 3.4494 13.7763 3.50331 13.7888 3.55487C13.8013 3.60642 13.8289 3.65348 13.8682 3.69051L16.0665 5.75492L15.5467 8.67039C15.54 8.72413 15.5489 8.77859 15.5725 8.82777C15.596 8.87694 15.6332 8.91891 15.68 8.94905C15.7267 8.97919 15.7813 8.99632 15.8375 8.99855C15.8938 9.00078 15.9496 8.98802 15.9988 8.96169L18.7031 7.59424L21.4061 8.9629C21.4553 8.98923 21.5112 9.00198 21.5674 8.99975C21.6237 8.99752 21.6782 8.98039 21.725 8.95025C21.7718 8.92012 21.809 8.87815 21.8325 8.82897C21.856 8.7798 21.865 8.72533 21.8583 8.67159L21.3397 5.75492L23.538 3.69051C23.5774 3.65348 23.6049 3.60642 23.6174 3.55487C23.6299 3.50331 23.6268 3.4494 23.6086 3.39946C23.5903 3.34952 23.5575 3.30564 23.5142 3.27297C23.4709 3.2403 23.4187 3.2202 23.3639 3.21503H23.3651Z" fill="#FF9F0D"/>
<path d="M36.1615 3.21503L33.1341 2.79251L31.7776 0.147892C31.748 0.102625 31.707 0.065307 31.6584 0.0394388C31.6098 0.0135706 31.5551 0 31.4995 0C31.4439 0 31.3892 0.0135706 31.3406 0.0394388C31.292 0.065307 31.251 0.102625 31.2214 0.147892L29.8649 2.79612L26.8387 3.21503C26.7839 3.2202 26.7318 3.2403 26.6884 3.27297C26.6451 3.30564 26.6123 3.34952 26.594 3.39946C26.5758 3.4494 26.5727 3.50331 26.5852 3.55487C26.5977 3.60642 26.6252 3.65348 26.6646 3.69051L28.8629 5.75492L28.343 8.67039C28.3364 8.72413 28.3453 8.77859 28.3688 8.82777C28.3924 8.87694 28.4296 8.91891 28.4764 8.94905C28.5231 8.97919 28.5777 8.99632 28.6339 8.99855C28.6902 9.00078 28.746 8.98802 28.7952 8.96169L31.4995 7.59424L34.2025 8.9629C34.2517 8.98923 34.3075 9.00198 34.3638 8.99975C34.4201 8.99752 34.4746 8.98039 34.5214 8.95025C34.5682 8.92012 34.6054 8.87815 34.6289 8.82897C34.6524 8.7798 34.6614 8.72533 34.6547 8.67159L34.1361 5.75492L36.3344 3.69051C36.3738 3.65348 36.4013 3.60642 36.4138 3.55487C36.4263 3.50331 36.4232 3.4494 36.405 3.39946C36.3867 3.34952 36.3539 3.30564 36.3106 3.27297C36.2672 3.2403 36.2151 3.2202 36.1603 3.21503H36.1615Z" fill="#E0E0E0"/>
<path d="M48.9589 3.21503L45.9315 2.79251L44.5749 0.147892C44.5454 0.102625 44.5044 0.065307 44.4558 0.0394388C44.4071 0.0135706 44.3524 0 44.2969 0C44.2413 0 44.1866 0.0135706 44.138 0.0394388C44.0893 0.065307 44.0483 0.102625 44.0188 0.147892L42.6623 2.79612L39.6361 3.21503C39.5813 3.2202 39.5291 3.2403 39.4858 3.27297C39.4424 3.30564 39.4097 3.34952 39.3914 3.39946C39.3731 3.4494 39.37 3.50331 39.3825 3.55487C39.3951 3.60642 39.4226 3.65348 39.462 3.69051L41.6602 5.75492L41.1404 8.67039C41.1338 8.72413 41.1427 8.77859 41.1662 8.82777C41.1897 8.87694 41.2269 8.91891 41.2737 8.94905C41.3205 8.97919 41.375 8.99632 41.4313 8.99855C41.4876 9.00078 41.5434 8.98802 41.5926 8.96169L44.2969 7.59424L46.9999 8.9629C47.0491 8.98923 47.1049 9.00198 47.1612 8.99975C47.2174 8.99752 47.272 8.98039 47.3188 8.95025C47.3655 8.92012 47.4027 8.87815 47.4263 8.82897C47.4498 8.7798 47.4587 8.72533 47.4521 8.67159L46.9335 5.75492L49.1317 3.69051C49.1711 3.65348 49.1987 3.60642 49.2112 3.55487C49.2237 3.50331 49.2206 3.4494 49.2023 3.39946C49.184 3.34952 49.1513 3.30564 49.1079 3.27297C49.0646 3.2403 49.0125 3.2202 48.9576 3.21503H48.9589Z" fill="#E0E0E0"/>
<path d="M62.7402 3.21503L59.7127 2.79251L58.3562 0.147892C58.3267 0.102625 58.2857 0.065307 58.237 0.0394388C58.1884 0.0135706 58.1337 0 58.0781 0C58.0225 0 57.9678 0.0135706 57.9192 0.0394388C57.8706 0.065307 57.8296 0.102625 57.8 0.147892L56.4435 2.79612L53.4173 3.21503C53.3625 3.2202 53.3104 3.2403 53.267 3.27297C53.2237 3.30564 53.1909 3.34952 53.1727 3.39946C53.1544 3.4494 53.1513 3.50331 53.1638 3.55487C53.1763 3.60642 53.2039 3.65348 53.2432 3.69051L55.4415 5.75492L54.9217 8.67039C54.915 8.72413 54.9239 8.77859 54.9475 8.82777C54.971 8.87694 55.0082 8.91891 55.055 8.94905C55.1017 8.97919 55.1563 8.99632 55.2125 8.99855C55.2688 9.00078 55.3246 8.98802 55.3738 8.96169L58.0781 7.59424L60.7811 8.9629C60.8303 8.98923 60.8862 9.00198 60.9424 8.99975C60.9987 8.99752 61.0532 8.98039 61.1 8.95025C61.1468 8.92012 61.184 8.87815 61.2075 8.82897C61.231 8.7798 61.24 8.72533 61.2333 8.67159L60.7148 5.75492L62.913 3.69051C62.9524 3.65348 62.9799 3.60642 62.9924 3.55487C63.0049 3.50331 63.0019 3.4494 62.9836 3.39946C62.9653 3.34952 62.9326 3.30564 62.8892 3.27297C62.8459 3.2403 62.7937 3.2202 62.7389 3.21503H62.7402Z" fill="#E0E0E0"/>
</svg>
