<svg width="146" height="34" viewBox="0 0 146 34" fill="none" xmlns="http://www.w3.org/2000/svg">
<path d="M0 2C0 0.89543 0.89543 0 2 0H38.1402C39.2448 0 40.1402 0.895431 40.1402 2V32C40.1402 33.1046 39.2448 34 38.1402 34H2C0.895428 34 0 33.1046 0 32V2Z" fill="white"/>
<path d="M105.86 2C105.86 0.89543 106.755 0 107.86 0H144C145.105 0 146 0.89543 146 2V32C146 33.1046 145.105 34 144 34H107.86C106.755 34 105.86 33.1046 105.86 32V2Z" fill="white"/>
<path d="M52.9297 2C52.9297 0.89543 53.8251 0 54.9297 0H91.0699C92.1745 0 93.0699 0.89543 93.0699 2V32C93.0699 33.1046 92.1745 34 91.0699 34H54.9297C53.8251 34 52.9297 33.1046 52.9297 32V2Z" fill="#FF9F0D"/>
<path d="M78.5805 22.5444H67.2274C67.0892 22.5444 66.9558 22.4948 66.8528 22.405C66.7498 22.3153 66.6844 22.1917 66.6691 22.0579L65.6704 13.3075C65.6617 13.231 65.6696 13.1537 65.6937 13.0804C65.7178 13.0072 65.7575 12.9397 65.8102 12.8824C65.8629 12.825 65.9274 12.7792 65.9995 12.7478C66.0716 12.7164 66.1497 12.7002 66.2287 12.7002H79.5791C79.6581 12.7002 79.7363 12.7164 79.8084 12.7478C79.8805 12.7792 79.945 12.825 79.9977 12.8824C80.0504 12.9397 80.0901 13.0072 80.1142 13.0804C80.1383 13.1537 80.1462 13.231 80.1375 13.3075L79.1388 22.0579C79.1235 22.1917 79.0581 22.3153 78.9551 22.405C78.8521 22.4948 78.7187 22.5444 78.5805 22.5444Z" stroke="white" stroke-width="1.5" stroke-linecap="round" stroke-linejoin="round"/>
<path d="M70.0947 14.8878V12.7002C70.0947 11.975 70.3907 11.2794 70.9174 10.7666C71.4441 10.2538 72.1586 9.9657 72.9035 9.9657C73.6484 9.9657 74.3629 10.2538 74.8896 10.7666C75.4164 11.2794 75.7123 11.975 75.7123 12.7002V14.8878" stroke="white" stroke-width="1.5" stroke-linecap="round" stroke-linejoin="round"/>
<path d="M125.833 22.5444C125.833 22.5444 118.811 18.7161 118.811 14.0674C118.811 13.2458 119.104 12.4496 119.639 11.8141C120.174 11.1787 120.918 10.7433 121.746 10.5819C122.573 10.4205 123.433 10.543 124.178 10.9288C124.923 11.3145 125.508 11.9396 125.833 12.6978L125.833 12.6978C126.158 11.9396 126.743 11.3145 127.489 10.9288C128.234 10.543 129.093 10.4205 129.921 10.5819C130.748 10.7433 131.493 11.1787 132.028 11.8141C132.563 12.4496 132.855 13.2458 132.855 14.0674C132.855 18.7161 125.833 22.5444 125.833 22.5444Z" stroke="#FF9F0D" stroke-width="1.5" stroke-linecap="round" stroke-linejoin="round"/>
<path d="M24.7484 22.5444C25.8342 22.5444 26.7145 21.6874 26.7145 20.6303C26.7145 19.5731 25.8342 18.7161 24.7484 18.7161C23.6625 18.7161 22.7822 19.5731 22.7822 20.6303C22.7822 21.6874 23.6625 22.5444 24.7484 22.5444Z" stroke="#FF9F0D" stroke-width="1.5" stroke-linecap="round" stroke-linejoin="round"/>
<path d="M24.7485 18.7161L24.7484 15.9735C24.7484 15.1033 24.3933 14.2687 23.7612 13.6533L21.0969 11.0595" stroke="#FF9F0D" stroke-width="1.5" stroke-linecap="round" stroke-linejoin="round"/>
<path d="M21.0969 13.794V11.0595H23.9057" stroke="#FF9F0D" stroke-width="1.5" stroke-linecap="round" stroke-linejoin="round"/>
<path d="M15.1986 14.3409C16.2844 14.3409 17.1647 13.4839 17.1647 12.4267C17.1647 11.3696 16.2844 10.5126 15.1986 10.5126C14.1127 10.5126 13.2324 11.3696 13.2324 12.4267C13.2324 13.4839 14.1127 14.3409 15.1986 14.3409Z" stroke="#FF9F0D" stroke-width="1.5" stroke-linecap="round" stroke-linejoin="round"/>
<path d="M15.1985 14.3409L15.1986 17.0835C15.1986 17.9538 15.5537 18.7883 16.1858 19.4037L18.8501 21.9975" stroke="#FF9F0D" stroke-width="1.5" stroke-linecap="round" stroke-linejoin="round"/>
<path d="M18.85 19.263V21.9975H16.0413" stroke="#FF9F0D" stroke-width="1.5" stroke-linecap="round" stroke-linejoin="round"/>
</svg>
