<svg width="12" height="10" viewBox="0 0 12 10" fill="none" xmlns="http://www.w3.org/2000/svg">
<path d="M5.91797 5.24414L1.93359 9.22852C1.64062 9.52148 1.20117 9.52148 0.9375 9.22852L0.263672 8.58398C0 8.29102 0 7.85156 0.263672 7.58789L3.10547 4.77539L0.263672 1.93359C0 1.66992 0 1.23047 0.263672 0.9375L0.9375 0.263672C1.20117 0 1.64062 0 1.93359 0.263672L5.91797 4.24805C6.18164 4.54102 6.18164 4.98047 5.91797 5.24414ZM11.543 4.24805C11.8066 4.54102 11.8066 4.98047 11.543 5.24414L7.55859 9.22852C7.29492 9.52148 6.82617 9.52148 6.5625 9.22852L5.88867 8.58398C5.625 8.29102 5.625 7.85156 5.88867 7.58789L8.73047 4.74609L5.88867 1.93359C5.625 1.66992 5.625 1.20117 5.88867 0.9375L6.5625 0.263672C6.82617 0 7.26562 0 7.55859 0.263672L11.543 4.24805Z" fill="#FF9F0D"/>
</svg>
